<mxfile host="app.diagrams.net" modified="2020-08-10T03:50:39.824Z" agent="5.0 (Windows NT 10.0; Win64; x64) AppleWebKit/537.36 (KHTML, like Gecko) Chrome/84.0.4147.105 Safari/537.36" etag="T2p3Eh2vC3HmBMtfHPnn" version="13.6.1" type="github">
  <diagram id="RKXgiKgYSkQMSVRlpmue" name="Page-1">
    <mxGraphModel dx="1483" dy="759" grid="1" gridSize="10" guides="1" tooltips="1" connect="1" arrows="1" fold="1" page="1" pageScale="1" pageWidth="850" pageHeight="1100" math="0" shadow="0">
      <root>
        <mxCell id="0" />
        <mxCell id="1" parent="0" />
        <mxCell id="ak26AoDWhJN86eoCERVe-12" style="edgeStyle=orthogonalEdgeStyle;rounded=0;orthogonalLoop=1;jettySize=auto;html=1;" edge="1" parent="1" source="ak26AoDWhJN86eoCERVe-2" target="ak26AoDWhJN86eoCERVe-6">
          <mxGeometry relative="1" as="geometry" />
        </mxCell>
        <mxCell id="ak26AoDWhJN86eoCERVe-13" style="edgeStyle=orthogonalEdgeStyle;rounded=0;orthogonalLoop=1;jettySize=auto;html=1;exitX=0;exitY=0.5;exitDx=0;exitDy=0;entryX=0.5;entryY=0;entryDx=0;entryDy=0;" edge="1" parent="1" source="ak26AoDWhJN86eoCERVe-2" target="ak26AoDWhJN86eoCERVe-3">
          <mxGeometry relative="1" as="geometry" />
        </mxCell>
        <mxCell id="ak26AoDWhJN86eoCERVe-2" value="Scaffold" style="ellipse;whiteSpace=wrap;html=1;aspect=fixed;" vertex="1" parent="1">
          <mxGeometry x="400" y="60" width="80" height="80" as="geometry" />
        </mxCell>
        <mxCell id="ak26AoDWhJN86eoCERVe-14" style="edgeStyle=orthogonalEdgeStyle;rounded=0;orthogonalLoop=1;jettySize=auto;html=1;exitX=0.5;exitY=1;exitDx=0;exitDy=0;entryX=0.5;entryY=0;entryDx=0;entryDy=0;" edge="1" parent="1" source="ak26AoDWhJN86eoCERVe-3" target="ak26AoDWhJN86eoCERVe-4">
          <mxGeometry relative="1" as="geometry" />
        </mxCell>
        <mxCell id="ak26AoDWhJN86eoCERVe-15" style="edgeStyle=orthogonalEdgeStyle;rounded=0;orthogonalLoop=1;jettySize=auto;html=1;exitX=0.5;exitY=1;exitDx=0;exitDy=0;entryX=0.5;entryY=0;entryDx=0;entryDy=0;" edge="1" parent="1" source="ak26AoDWhJN86eoCERVe-3" target="ak26AoDWhJN86eoCERVe-5">
          <mxGeometry relative="1" as="geometry" />
        </mxCell>
        <mxCell id="ak26AoDWhJN86eoCERVe-3" value="App Bar" style="ellipse;whiteSpace=wrap;html=1;aspect=fixed;" vertex="1" parent="1">
          <mxGeometry x="290" y="140" width="80" height="80" as="geometry" />
        </mxCell>
        <mxCell id="ak26AoDWhJN86eoCERVe-4" value="Square Icon" style="ellipse;whiteSpace=wrap;html=1;aspect=fixed;" vertex="1" parent="1">
          <mxGeometry x="345" y="260" width="80" height="80" as="geometry" />
        </mxCell>
        <mxCell id="ak26AoDWhJN86eoCERVe-5" value="Line Icon" style="ellipse;whiteSpace=wrap;html=1;aspect=fixed;" vertex="1" parent="1">
          <mxGeometry x="220" y="260" width="80" height="80" as="geometry" />
        </mxCell>
        <mxCell id="ak26AoDWhJN86eoCERVe-16" style="edgeStyle=orthogonalEdgeStyle;rounded=0;orthogonalLoop=1;jettySize=auto;html=1;entryX=0.5;entryY=0;entryDx=0;entryDy=0;" edge="1" parent="1" source="ak26AoDWhJN86eoCERVe-6" target="ak26AoDWhJN86eoCERVe-7">
          <mxGeometry relative="1" as="geometry" />
        </mxCell>
        <mxCell id="ak26AoDWhJN86eoCERVe-6" value="Container" style="ellipse;whiteSpace=wrap;html=1;aspect=fixed;" vertex="1" parent="1">
          <mxGeometry x="500" y="150" width="80" height="80" as="geometry" />
        </mxCell>
        <mxCell id="ak26AoDWhJN86eoCERVe-17" value="" style="edgeStyle=orthogonalEdgeStyle;rounded=0;orthogonalLoop=1;jettySize=auto;html=1;" edge="1" parent="1" source="ak26AoDWhJN86eoCERVe-7" target="ak26AoDWhJN86eoCERVe-8">
          <mxGeometry relative="1" as="geometry" />
        </mxCell>
        <mxCell id="ak26AoDWhJN86eoCERVe-7" value="Background Image" style="ellipse;whiteSpace=wrap;html=1;aspect=fixed;" vertex="1" parent="1">
          <mxGeometry x="500" y="250" width="80" height="80" as="geometry" />
        </mxCell>
        <mxCell id="ak26AoDWhJN86eoCERVe-20" style="edgeStyle=orthogonalEdgeStyle;rounded=0;orthogonalLoop=1;jettySize=auto;html=1;exitX=0.5;exitY=1;exitDx=0;exitDy=0;" edge="1" parent="1" source="ak26AoDWhJN86eoCERVe-8" target="ak26AoDWhJN86eoCERVe-9">
          <mxGeometry relative="1" as="geometry" />
        </mxCell>
        <mxCell id="ak26AoDWhJN86eoCERVe-21" style="edgeStyle=orthogonalEdgeStyle;rounded=0;orthogonalLoop=1;jettySize=auto;html=1;exitX=0.5;exitY=1;exitDx=0;exitDy=0;" edge="1" parent="1" source="ak26AoDWhJN86eoCERVe-8" target="ak26AoDWhJN86eoCERVe-10">
          <mxGeometry relative="1" as="geometry" />
        </mxCell>
        <mxCell id="ak26AoDWhJN86eoCERVe-8" value="Column" style="ellipse;whiteSpace=wrap;html=1;aspect=fixed;" vertex="1" parent="1">
          <mxGeometry x="500" y="360" width="80" height="80" as="geometry" />
        </mxCell>
        <mxCell id="ak26AoDWhJN86eoCERVe-9" value="Icon Buttons" style="ellipse;whiteSpace=wrap;html=1;aspect=fixed;" vertex="1" parent="1">
          <mxGeometry x="410" y="500" width="80" height="80" as="geometry" />
        </mxCell>
        <mxCell id="ak26AoDWhJN86eoCERVe-19" style="edgeStyle=orthogonalEdgeStyle;rounded=0;orthogonalLoop=1;jettySize=auto;html=1;exitX=0.5;exitY=1;exitDx=0;exitDy=0;entryX=0.5;entryY=0;entryDx=0;entryDy=0;" edge="1" parent="1" source="ak26AoDWhJN86eoCERVe-10" target="ak26AoDWhJN86eoCERVe-11">
          <mxGeometry relative="1" as="geometry" />
        </mxCell>
        <mxCell id="ak26AoDWhJN86eoCERVe-10" value="Row" style="ellipse;whiteSpace=wrap;html=1;aspect=fixed;" vertex="1" parent="1">
          <mxGeometry x="610" y="500" width="80" height="80" as="geometry" />
        </mxCell>
        <mxCell id="ak26AoDWhJN86eoCERVe-11" value="Icon Buttons" style="ellipse;whiteSpace=wrap;html=1;aspect=fixed;" vertex="1" parent="1">
          <mxGeometry x="610" y="620" width="80" height="80" as="geometry" />
        </mxCell>
      </root>
    </mxGraphModel>
  </diagram>
</mxfile>
